# xmcd
#
# Track frame offsets:
#	150
#	16125
#	34710
#	49982
#	68627
#	84877
#	102442
#	117862
#	130682
#	147232
#	162260
#	179197
#	191242
#	207975
#	225587
#	238014
#	251770
#	265489
#	275261
#	285588
#	292841
#	303320
#	315000
#
# Disc length: 4428 seconds
#
# Revision: 0
# Processed by: cddbd v1.5.1PL0 Copyright (c) Steve Scherf et al.
# Submitted via: dBpowerAMP V4.0
#
DISCID=46114a17
DTITLE=DERRICK JUNKEER - MYSTIC COLOURS
DYEAR=1900
DGENRE=
TTITLE0=The Most Beautiful Girl
TTITLE1=I Wouldn't Have Missed It For The World
TTITLE2=One Day At A Time
TTITLE3=She Believes In Me
TTITLE4=Always On My Mind
TTITLE5=What Ever Happened To Old Fashioned Love
TTITLE6=To All The Girls I've Loved Before
TTITLE7=Behind Closed Doors
TTITLE8=I Love You Because
TTITLE9=Don't Make My Brown Eyes Blue
TTITLE10=You Decorated My Life
TTITLE11=Tennessee Waltz
TTITLE12=Tie A Yellow Ribbon
TTITLE13=White Christmas
TTITLE14=Oh Come All Ye Faithful
TTITLE15=Silent Night
TTITLE16=Silver Bells
TTITLE17=Winter Wonderland
TTITLE18=Rudolph The Red Nosed Reindeer
TTITLE19=Jingle Belss
TTITLE20=Mary's Boy child
TTITLE21=Blue Christmas
TTITLE22=Have Yourself A Merry Little Christmas
EXTD=
EXTT0=
EXTT1=
EXTT2=
EXTT3=
EXTT4=
EXTT5=
EXTT6=
EXTT7=
EXTT8=
EXTT9=
EXTT10=
EXTT11=
EXTT12=
EXTT13=
EXTT14=
EXTT15=
EXTT16=
EXTT17=
EXTT18=
EXTT19=
EXTT20=
EXTT21=
EXTT22=
PLAYORDER=
